<svg width="122" height="122" viewBox="0 0 122 122" fill="none" xmlns="http://www.w3.org/2000/svg">
<g clip-path="url(#clip0_751_13739)">
<path d="M95.0608 46.6112C91.4927 38.1364 84.9028 31.2897 76.5706 27.4004C68.2383 23.5111 58.7581 22.8566 49.9704 25.5641C41.1827 28.2715 33.7145 34.1477 29.0157 42.0518C24.3169 49.9558 22.7227 59.3239 24.5426 68.3374C26.3626 77.3508 31.4667 85.3664 38.8642 90.8281C46.2618 96.2898 55.4248 98.8079 64.5746 97.8935C73.7243 96.9792 82.2078 92.6976 88.3783 85.8801C94.5487 79.0625 97.9658 70.1953 97.966 61C97.9737 56.0573 96.9856 51.1637 95.0608 46.6112ZM56.3078 83.643L46.488 75.2142L37.0282 67.1L45.4319 57.3089L54.1238 64.7689L74.5564 38.3594L84.9719 45.9737L56.3078 83.643Z" fill="#3BCC83"/>
<path d="M122 61.0287L115.183 50.2485L117.365 37.6896L106.96 30.3278L104.149 17.8945L91.7095 15.0861L84.3704 4.66471L71.8055 6.81765L61.0289 0L50.2486 6.81765L37.6898 4.6348L30.328 15.0407L17.8887 17.8515L15.0803 30.2907L4.66489 37.6298L6.81783 50.1886L0.00854492 60.9653L6.82619 71.7456L4.64335 84.3044L15.0492 91.6663L17.86 104.105L30.2992 106.914L37.6444 117.336L50.2092 115.184L60.9858 121.993L71.7661 115.175L84.3249 117.358L91.6868 106.952L104.126 104.141L106.934 91.7021L117.357 84.357L115.204 71.7922L122 61.0287ZM61.0002 104.376C37.0439 104.376 17.6244 84.9563 17.6244 61C17.6244 37.0437 37.0439 17.6242 61.0002 17.6242C84.9564 17.6242 104.376 37.0437 104.376 61C104.376 84.9563 84.9564 104.376 61.0002 104.376Z" fill="#3BCC83"/>
</g>
<defs>
<clipPath id="clip0_751_13739">
<rect width="122" height="122" fill="white"/>
</clipPath>
</defs>
</svg>
