<svg width="22" height="22" viewBox="0 0 22 22" fill="none" xmlns="http://www.w3.org/2000/svg">
<path d="M17.875 6.875V6.88037C18.2402 6.88037 18.5894 7.02539 18.8472 7.27783L21.5972 10.0278C22.1343 10.5649 22.1343 11.4351 21.5972 11.9722L18.8472 14.7222C18.5894 14.9746 18.2402 15.1196 17.875 15.1143V15.125H16.5V12.375H9.625C8.86768 12.375 8.25 11.7573 8.25 11C8.25 10.2427 8.86768 9.625 9.625 9.625H16.5V6.875H17.875Z" fill="#5E6363"/>
<path d="M12.6221 1.50929C9.32959 0.950701 5.87061 2.13234 3.62012 4.80715C0.628418 8.37892 0.628418 13.6157 3.62012 17.1821C6.61719 20.7539 11.7734 21.6616 15.8071 19.3306C16.124 19.148 16.355 18.8472 16.4517 18.4981C16.543 18.1436 16.4946 17.7676 16.312 17.4507C15.9307 16.7954 15.0928 16.5698 14.4321 16.9512C11.5371 18.6216 7.8794 17.9824 5.73096 15.4151C3.58252 12.853 3.58252 9.14162 5.73096 6.57424C7.8794 4.01223 11.5371 3.36769 14.4321 5.04348C15.0928 5.41945 15.9307 5.19924 16.312 4.53859C16.4946 4.22707 16.543 3.85109 16.4517 3.4966C16.355 3.14211 16.124 2.84133 15.8071 2.65871C14.8027 2.07863 13.7231 1.69728 12.6221 1.50929Z" fill="#5E6363"/>
</svg>
