<svg width="25" height="24" viewBox="0 0 25 24" fill="none" xmlns="http://www.w3.org/2000/svg">
<path d="M17.6764 13.4233H13.2185V10.9673H20.945C20.9953 11.3695 21.0232 11.7805 21.0232 12.2068C21.0232 14.8045 20.1272 16.9731 18.5957 18.4655H16.3373V16.9239C17.2882 16.2074 17.9359 15.1992 18.1671 14.0194L18.2839 13.4233H17.6764Z" fill="#4285F4" stroke="#00B4D8"/>
<path d="M12.7185 21.1956C15.2013 21.1956 17.2779 20.368 18.7952 18.9657L15.8373 16.6668C15.0097 17.2185 13.9599 17.5557 12.7185 17.5557C10.32 17.5557 8.2893 15.9388 7.56132 13.7549H4.51147V16.1227C6.02107 19.1266 9.12456 21.1956 12.7185 21.1956Z" fill="#34A853"/>
<path d="M7.56132 13.7549C7.36974 13.2032 7.27012 12.6131 7.27012 12.0001C7.27012 11.3871 7.37741 10.797 7.56132 10.2453V7.87744H4.51147C3.88311 9.11884 3.52295 10.5135 3.52295 12.0001C3.52295 13.4867 3.88311 14.8814 4.51147 16.1228L7.56132 13.7549Z" fill="#FBBC05"/>
<path d="M12.7185 6.44434C14.0748 6.44434 15.2856 6.91178 16.2434 7.82367L18.8642 5.20294C17.2779 3.71633 15.2013 2.80444 12.7185 2.80444C9.12456 2.80444 6.02107 4.87344 4.51147 7.87731L7.56132 10.2452C8.2893 8.06122 10.32 6.44434 12.7185 6.44434Z" fill="#EA4335"/>
</svg>
