<svg width="46" height="46" viewBox="0 0 46 46" fill="none" xmlns="http://www.w3.org/2000/svg">
<path d="M37.9423 15.4707H39.9411C42.0204 15.4707 43.7058 17.1562 43.7058 19.2354V26.7648C43.7058 28.844 42.0204 30.5295 39.9411 30.5295H37.9423C37.016 37.9578 30.6792 43.706 23 43.706V39.9412C29.2375 39.9412 34.2941 34.8847 34.2941 28.6471V17.353C34.2941 11.1154 29.2375 6.0589 23 6.0589C16.7624 6.0589 11.7058 11.1154 11.7058 17.353V30.5295H6.05877C3.97958 30.5295 2.29407 28.844 2.29407 26.7648V19.2354C2.29407 17.1562 3.97958 15.4707 6.05877 15.4707H8.05763C8.98393 8.04231 15.3207 2.29419 23 2.29419C30.6792 2.29419 37.016 8.04231 37.9423 15.4707ZM6.05877 19.2354V26.7648H7.94113V19.2354H6.05877ZM38.0588 19.2354V26.7648H39.9411V19.2354H38.0588ZM15.0177 30.1246L17.0133 26.9317C18.7489 28.0188 20.801 28.6471 23 28.6471C25.1989 28.6471 27.2511 28.0188 28.9866 26.9317L30.9823 30.1246C28.6681 31.574 25.9319 32.4118 23 32.4118C20.068 32.4118 17.3318 31.574 15.0177 30.1246Z" fill="#00B4D8"/>
</svg>
