<svg width="18" height="20" viewBox="0 0 18 20" fill="none" xmlns="http://www.w3.org/2000/svg">
<path fill-rule="evenodd" clip-rule="evenodd" d="M9.58118 1.08714C9.32211 0.944261 9.00711 0.944261 8.74804 1.08714L1.02742 5.34481L1.02137 5.35503L1.00899 5.35518C0.747019 5.50819 0.586182 5.78747 0.586182 6.08919V14.6044C0.586182 14.9137 0.755082 15.1986 1.02742 15.3488L8.73757 19.6007C8.9981 19.7492 9.31825 19.7516 9.58118 19.6066L17.3018 15.3489C17.5741 15.1987 17.743 14.9138 17.743 14.6045V6.08919C17.743 5.78747 17.5822 5.50828 17.3202 5.35528C17.3138 5.35152 17.3073 5.34786 17.3008 5.34428L9.58118 1.08714ZM3.21052 6.08915L9.16469 9.3727L11.2968 8.1969L5.51274 4.81953L3.21052 6.08915ZM13.0371 7.23719L15.1188 6.08919L9.16461 2.80564L7.25301 3.85983L13.0371 7.23719ZM2.30187 14.1034V7.53638L8.30676 10.8479V17.4149L2.30187 14.1034ZM10.0224 17.415V10.8479L16.0273 7.53638V14.1035L10.0224 17.415Z" fill="#0F0F0F"/>
</svg>
